<svg width="1022" height="470" viewBox="0 0 1022 470" fill="none" xmlns="http://www.w3.org/2000/svg">
<line x1="378" y1="160.5" x2="702" y2="160.5" stroke="black" stroke-width="15"/>
<line x1="356" y1="181.5" x2="671" y2="181.5" stroke="black" stroke-width="15"/>
<line x1="352" y1="205.5" x2="671" y2="205.5" stroke="black" stroke-width="15"/>
<line x1="384" y1="226.5" x2="702" y2="226.5" stroke="black" stroke-width="15"/>
<line x1="230" y1="234.5" x2="318" y2="234.5" stroke="black" stroke-width="15"/>
<line x1="230" y1="156.5" x2="318" y2="156.5" stroke="black" stroke-width="15"/>
<line x1="310.5" y1="237" x2="310.5" y2="158" stroke="black" stroke-width="15"/>
<line x1="816.884" y1="163.5" x2="732" y2="163.5" stroke="black" stroke-width="15"/>
<line x1="816.884" y1="228.5" x2="732" y2="228.5" stroke="black" stroke-width="15"/>
<line x1="739.5" y1="161" x2="739.5" y2="221" stroke="black" stroke-width="15"/>
<path fill-rule="evenodd" clip-rule="evenodd" d="M384.362 219C379.837 224.823 373.27 230.905 365.06 236.643C345.175 250.541 319.218 260 298.812 260C270.556 260 247.251 246.276 235.142 227H218C231.295 255.204 262.472 275 298.812 275C337.263 275 387.539 247.571 402.141 219H384.362ZM395.576 168C376.476 142.146 333.895 118 298.812 118C263.337 118 232.783 136.864 218.98 164H236.452C248.885 145.781 271.543 133 298.812 133C318.889 133 343.615 142.836 363.07 157.194C367.818 160.698 372.072 164.343 375.742 168H395.576Z" fill="black"/>
<path fill-rule="evenodd" clip-rule="evenodd" d="M357.605 189.068C357.251 189.024 356.883 189 356.5 189C354.245 189 352.474 189.825 351.374 190.822C350.299 191.797 350 192.76 350 193.5C350 194.24 350.299 195.203 351.374 196.178C352.474 197.175 354.245 198 356.5 198C356.883 198 357.251 197.976 357.605 197.932V212.975C357.239 212.991 356.871 213 356.5 213C344.626 213 335 204.27 335 193.5C335 182.73 344.626 174 356.5 174C359.909 174 363.132 174.719 365.996 176H357.605V189.068Z" fill="black"/>
<path fill-rule="evenodd" clip-rule="evenodd" d="M670.646 212.951C671.094 212.984 671.545 213 672 213C682.493 213 691 204.27 691 193.5C691 182.73 682.493 174 672 174C668.276 174 664.802 175.1 661.87 177L670.646 177L670.646 189.281C671.093 189.096 671.555 189 672 189C673.844 189 676 190.645 676 193.5C676 196.355 673.844 198 672 198C671.555 198 671.093 197.904 670.646 197.719L670.646 212.951Z" fill="black"/>
<path fill-rule="evenodd" clip-rule="evenodd" d="M754.949 249C778.991 249 798.581 237.265 808.614 221H825.6C814.474 246.185 787.035 264 754.949 264C722.019 264 693.985 245.237 683.454 219H700.11C709.735 236.294 729.931 249 754.949 249ZM703.279 168C713.787 153.312 732.411 143 754.949 143C778.991 143 798.581 154.735 808.614 171H825.6C814.474 145.815 787.035 128 754.949 128C724.152 128 697.636 144.412 685.717 168H703.279Z" fill="black"/>
<path d="M721.5 110C760.182 115.628 765.272 116.694 802.5 122.5C829.7 128.5 858.25 149 863.5 179C867 199 856.5 216.5 851 224.5C849.625 226.5 853.7 224.5 886.5 224.5C907.5 162.5 861 116 842 105C823 94 710 78.9091 678 60C480 -57 258.5 60 250.5 60C234 58.5 212 48.5001 200 46.5001C178.8 43.7001 161.5 50.6667 155.5 54.5L165.5 65.5C167.1 69.5 166.167 75.5001 165.5 78.0001C163.5 90.8001 158 99.6667 155.5 102.5C147.333 110.833 131 131.6 131 148C132.6 184.4 185 220.667 206.5 224.5L201.5 189L200 170V159.5C200 147.5 216 118.5 224.5 111C233 103.5 269.5 92.2143 292 89C303.422 87.3683 315.926 86.997 327.5 85.8662M721.5 110C588.5 70.5 494 -0.499977 327.5 85.8662M721.5 110C626.857 134.911 389.1 160.959 327.5 85.8662" stroke="black" stroke-width="15" stroke-linejoin="round"/>
<path d="M53.5322 433.35C49.1322 433.35 46.1822 431.35 44.6822 427.35L6.28223 327.45C7.18223 326.95 8.38223 326.55 9.88223 326.25C11.3822 325.85 12.7822 325.65 14.0822 325.65C17.5822 325.65 20.4822 326.45 22.7822 328.05C25.1822 329.55 26.9322 331.75 28.0322 334.65L52.4822 403.2L49.3322 412.2L50.8322 412.8L78.8822 334.65C81.1822 328.65 85.8822 325.65 92.9822 325.65C94.1822 325.65 95.4822 325.85 96.8822 326.25C98.3822 326.55 99.6322 326.95 100.632 327.45L62.3822 427.35C61.6822 429.25 60.5322 430.75 58.9322 431.85C57.4322 432.85 55.6322 433.35 53.5322 433.35ZM121.421 432C118.921 432 116.771 431.2 114.971 429.6C113.171 427.9 112.271 425.9 112.271 423.6V335.25C112.271 332.95 113.121 331 114.821 329.4C116.621 327.8 118.821 327 121.421 327H162.071C171.471 327 178.921 329.65 184.421 334.95C190.021 340.25 192.821 347.35 192.821 356.25C192.821 360.65 191.621 364.85 189.221 368.85C186.921 372.75 183.821 375.75 179.921 377.85V378.3C185.321 380 189.521 382.95 192.521 387.15C195.621 391.25 197.171 396 197.171 401.4C197.171 407.4 195.821 412.75 193.121 417.45C190.421 422.05 186.671 425.65 181.871 428.25C177.071 430.75 171.571 432 165.371 432H121.421ZM161.771 371.85C165.371 371.85 168.421 370.4 170.921 367.5C173.521 364.6 174.821 361.05 174.821 356.85C174.821 352.35 173.671 348.8 171.371 346.2C169.071 343.6 165.871 342.3 161.771 342.3H129.971V371.85H161.771ZM164.771 416.55C169.271 416.55 172.771 415.25 175.271 412.65C177.871 409.95 179.171 406.3 179.171 401.7C179.171 397 177.921 393.4 175.421 390.9C172.921 388.3 169.371 387 164.771 387H129.971V416.55H164.771ZM772.551 432C769.951 432 767.701 431.05 765.801 429.15C764.001 427.25 763.101 425 763.101 422.4V339.45C763.101 334.75 764.551 331.3 767.451 329.1C770.451 326.8 775.001 325.65 781.101 325.65V416.25H823.551C827.851 416.25 831.101 417.6 833.301 420.3C835.601 422.9 836.751 426.8 836.751 432H772.551ZM860.149 432C857.549 432 855.299 431.05 853.399 429.15C851.599 427.25 850.699 425 850.699 422.4V339.45C850.699 334.75 852.149 331.3 855.049 329.1C858.049 326.8 862.599 325.65 868.699 325.65V416.25H911.149C915.449 416.25 918.699 417.6 920.899 420.3C923.199 422.9 924.349 426.8 924.349 432H860.149ZM971.232 433.35C962.532 433.35 954.732 431.7 947.832 428.4C941.032 425 935.732 420.35 931.932 414.45C928.132 408.45 926.232 401.65 926.232 394.05V364.5C926.232 356.9 928.082 350.2 931.782 344.4C935.582 338.5 940.832 333.9 947.532 330.6C954.332 327.3 962.032 325.65 970.632 325.65C979.332 325.65 987.032 327 993.732 329.7C1000.43 332.3 1005.63 336 1009.33 340.8C1013.13 345.5 1015.03 350.9 1015.03 357C1015.03 360.5 1013.88 363.25 1011.58 365.25C1009.28 367.15 1006.18 368.1 1002.28 368.1C1000.38 368.1 998.582 367.9 996.882 367.5C997.182 366 997.332 363.75 997.332 360.75C997.332 355.05 994.832 350.4 989.832 346.8C984.932 343.2 978.532 341.4 970.632 341.4C962.832 341.4 956.482 343.55 951.582 347.85C946.682 352.15 944.232 357.7 944.232 364.5V394.05C944.232 400.95 946.732 406.6 951.732 411C956.732 415.3 963.232 417.45 971.232 417.45C979.132 417.45 985.582 415.7 990.582 412.2C995.582 408.6 998.082 403.95 998.082 398.25C998.082 395.45 997.932 393.3 997.632 391.8C999.232 391.4 1000.98 391.2 1002.88 391.2C1006.78 391.2 1009.88 392.25 1012.18 394.35C1014.58 396.45 1015.78 399.3 1015.78 402.9C1015.78 408.8 1013.88 414.05 1010.08 418.65C1006.38 423.25 1001.13 426.85 994.332 429.45C987.532 432.05 979.832 433.35 971.232 433.35Z" fill="black"/>
<path d="M251.285 339.45C251.285 335.15 252.885 331.75 256.085 329.25C259.385 326.75 263.785 325.5 269.285 325.5L302.435 407.4L299.135 415.95L300.485 416.55L335.885 325.65C341.485 325.65 345.885 326.9 349.085 329.4C352.385 331.9 354.035 335.3 354.035 339.6V433.35C342.235 433.35 336.335 428.8 336.335 419.7V366.6L340.985 354L339.485 353.55L309.935 428.4C309.335 429.8 308.385 431 307.085 432C305.785 432.9 304.335 433.35 302.735 433.35C301.035 433.35 299.485 432.9 298.085 432C296.785 431.1 295.835 429.85 295.235 428.25L265.835 353.25L264.335 353.85L268.985 366.45V419.7C268.985 428.8 263.085 433.35 251.285 433.35V339.45ZM403.171 433.35C396.771 433.35 390.971 432.2 385.771 429.9C380.671 427.5 376.621 424.25 373.621 420.15C370.721 416.05 369.271 411.4 369.271 406.2V384C369.271 378.7 370.721 373.9 373.621 369.6C376.521 365.3 380.521 361.9 385.621 359.4C390.821 356.9 396.671 355.65 403.171 355.65C409.671 355.65 415.471 356.9 420.571 359.4C425.771 361.9 429.821 365.3 432.721 369.6C435.621 373.9 437.071 378.7 437.071 384V406.2C437.071 411.4 435.571 416.05 432.571 420.15C429.671 424.25 425.621 427.5 420.421 429.9C415.321 432.2 409.571 433.35 403.171 433.35ZM403.171 418.8C408.471 418.8 412.671 417.6 415.771 415.2C418.871 412.7 420.421 409.35 420.421 405.15V384.75C420.421 380.35 418.871 376.8 415.771 374.1C412.671 371.4 408.471 370.05 403.171 370.05C397.871 370.05 393.671 371.4 390.571 374.1C387.471 376.8 385.921 380.35 385.921 384.75V405.15C385.921 409.35 387.471 412.7 390.571 415.2C393.671 417.6 397.871 418.8 403.171 418.8ZM481.031 433.35C473.231 433.35 467.431 431.1 463.631 426.6C459.931 422.1 458.081 416.3 458.081 409.2V369.75H443.081C443.081 365.45 443.931 362.25 445.631 360.15C447.331 358.05 449.631 357 452.531 357H458.231V343.95C458.231 340.15 459.581 337.4 462.281 335.7C465.081 334 469.231 333.15 474.731 333.15V357H494.681C494.681 361.5 493.781 364.75 491.981 366.75C490.181 368.75 487.331 369.75 483.431 369.75H474.881V408.6C474.881 412.2 475.581 414.8 476.981 416.4C478.381 417.9 480.831 418.65 484.331 418.65C487.831 418.65 491.281 417.7 494.681 415.8C495.581 416.6 496.231 417.6 496.631 418.8C497.131 420 497.381 421.25 497.381 422.55C497.381 425.35 495.931 427.85 493.031 430.05C490.131 432.25 486.131 433.35 481.031 433.35ZM538.669 433.35C532.269 433.35 526.469 432.2 521.269 429.9C516.169 427.5 512.119 424.25 509.119 420.15C506.219 416.05 504.769 411.4 504.769 406.2V384C504.769 378.7 506.219 373.9 509.119 369.6C512.019 365.3 516.019 361.9 521.119 359.4C526.319 356.9 532.169 355.65 538.669 355.65C545.169 355.65 550.969 356.9 556.069 359.4C561.269 361.9 565.319 365.3 568.219 369.6C571.119 373.9 572.569 378.7 572.569 384V406.2C572.569 411.4 571.069 416.05 568.069 420.15C565.169 424.25 561.119 427.5 555.919 429.9C550.819 432.2 545.069 433.35 538.669 433.35ZM538.669 418.8C543.969 418.8 548.169 417.6 551.269 415.2C554.369 412.7 555.919 409.35 555.919 405.15V384.75C555.919 380.35 554.369 376.8 551.269 374.1C548.169 371.4 543.969 370.05 538.669 370.05C533.369 370.05 529.169 371.4 526.069 374.1C522.969 376.8 521.419 380.35 521.419 384.75V405.15C521.419 409.35 522.969 412.7 526.069 415.2C529.169 417.6 533.369 418.8 538.669 418.8ZM624.653 370.2C618.853 370.2 614.103 371.85 610.403 375.15C606.703 378.35 604.853 382.3 604.853 387V422.55C604.853 426.35 603.453 429.1 600.653 430.8C597.953 432.5 593.753 433.35 588.053 433.35V369C588.053 360.1 593.403 355.65 604.103 355.65V364.65C602.703 366.25 601.553 367.85 600.653 369.45L601.403 370.05C607.903 360.45 615.853 355.65 625.253 355.65C629.253 355.65 632.303 356.7 634.403 358.8C636.503 360.8 637.553 363.35 637.553 366.45C637.553 368.75 636.953 370.8 635.753 372.6C632.853 371 629.153 370.2 624.653 370.2ZM677.072 433.35C667.972 433.35 660.472 431.6 654.572 428.1C648.772 424.6 645.872 419.95 645.872 414.15C645.872 408.75 649.672 405.9 657.272 405.6C658.172 410.4 660.372 414.05 663.872 416.55C667.372 418.95 671.622 420.15 676.622 420.15C682.022 420.15 686.222 419.45 689.222 418.05C692.222 416.55 693.722 414.35 693.722 411.45C693.722 408.65 692.422 406.45 689.822 404.85C687.322 403.15 682.472 401.45 675.272 399.75C668.172 398.15 662.572 396.45 658.472 394.65C654.372 392.85 651.272 390.55 649.172 387.75C647.172 384.95 646.172 381.25 646.172 376.65C646.172 370.45 648.822 365.4 654.122 361.5C659.522 357.6 666.722 355.65 675.722 355.65C684.422 355.65 691.722 357.25 697.622 360.45C703.522 363.65 706.472 367.9 706.472 373.2C706.472 375.8 705.472 377.75 703.472 379.05C701.572 380.35 698.622 381.05 694.622 381.15C693.022 372.65 686.972 368.4 676.472 368.4C672.372 368.4 668.922 369.15 666.122 370.65C663.422 372.15 662.072 374.1 662.072 376.5C662.072 379 663.272 380.95 665.672 382.35C668.172 383.65 672.322 384.9 678.122 386.1C689.122 388.4 697.122 391.5 702.122 395.4C707.122 399.3 709.622 404.65 709.622 411.45C709.622 418.15 706.722 423.5 700.922 427.5C695.122 431.4 687.172 433.35 677.072 433.35Z" fill="#AA8F01"/>
</svg>
