<svg width="777" height="275" viewBox="0 0 777 275" fill="none" xmlns="http://www.w3.org/2000/svg">
<line x1="255" y1="160.5" x2="579" y2="160.5" stroke="black" stroke-width="15"/>
<line x1="233" y1="181.5" x2="548" y2="181.5" stroke="black" stroke-width="15"/>
<line x1="229" y1="205.5" x2="548" y2="205.5" stroke="black" stroke-width="15"/>
<line x1="261" y1="226.5" x2="579" y2="226.5" stroke="black" stroke-width="15"/>
<line x1="107" y1="234.5" x2="195" y2="234.5" stroke="black" stroke-width="15"/>
<line x1="107" y1="156.5" x2="195" y2="156.5" stroke="black" stroke-width="15"/>
<line x1="187.5" y1="237" x2="187.5" y2="158" stroke="black" stroke-width="15"/>
<line x1="693.884" y1="163.5" x2="609" y2="163.5" stroke="black" stroke-width="15"/>
<line x1="693.884" y1="228.5" x2="609" y2="228.5" stroke="black" stroke-width="15"/>
<line x1="616.5" y1="161" x2="616.5" y2="221" stroke="black" stroke-width="15"/>
<path fill-rule="evenodd" clip-rule="evenodd" d="M261.362 219C256.837 224.823 250.27 230.905 242.06 236.643C222.175 250.541 196.218 260 175.812 260C147.556 260 124.251 246.276 112.142 227H95C108.295 255.204 139.472 275 175.812 275C214.263 275 264.539 247.571 279.141 219H261.362ZM272.576 168C253.476 142.146 210.895 118 175.812 118C140.337 118 109.783 136.864 95.9798 164H113.452C125.885 145.781 148.543 133 175.812 133C195.889 133 220.615 142.836 240.07 157.194C244.818 160.698 249.072 164.343 252.742 168H272.576Z" fill="black"/>
<path fill-rule="evenodd" clip-rule="evenodd" d="M234.605 189.068C234.251 189.024 233.883 189 233.5 189C231.245 189 229.474 189.825 228.374 190.822C227.299 191.797 227 192.76 227 193.5C227 194.24 227.299 195.203 228.374 196.178C229.474 197.175 231.245 198 233.5 198C233.883 198 234.251 197.976 234.605 197.932V212.975C234.239 212.991 233.871 213 233.5 213C221.626 213 212 204.27 212 193.5C212 182.73 221.626 174 233.5 174C236.909 174 240.132 174.719 242.996 176H234.605V189.068Z" fill="black"/>
<path fill-rule="evenodd" clip-rule="evenodd" d="M547.646 212.951C548.094 212.984 548.545 213 549 213C559.493 213 568 204.27 568 193.5C568 182.73 559.493 174 549 174C545.276 174 541.802 175.1 538.87 177L547.646 177L547.646 189.281C548.093 189.096 548.555 189 549 189C550.844 189 553 190.645 553 193.5C553 196.355 550.844 198 549 198C548.555 198 548.093 197.904 547.646 197.719L547.646 212.951Z" fill="black"/>
<path fill-rule="evenodd" clip-rule="evenodd" d="M631.949 249C655.991 249 675.581 237.265 685.614 221H702.6C691.474 246.185 664.035 264 631.949 264C599.019 264 570.985 245.237 560.454 219H577.11C586.735 236.294 606.931 249 631.949 249ZM580.279 168C590.787 153.312 609.411 143 631.949 143C655.991 143 675.581 154.735 685.614 171H702.6C691.474 145.815 664.035 128 631.949 128C601.152 128 574.636 144.412 562.717 168H580.279Z" fill="black"/>
<path d="M598.5 110C637.182 115.628 642.272 116.694 679.5 122.5C706.7 128.5 735.25 149 740.5 179C744 199 733.5 216.5 728 224.5C726.625 226.5 730.7 224.5 763.5 224.5C784.5 162.5 738 116 719 105C700 94 587 78.9091 555 60C357 -57 135.5 60 127.5 60C111 58.5 89 48.5001 77 46.5001C55.8 43.7001 38.5 50.6667 32.5 54.5L42.5 65.5C44.1 69.5 43.1667 75.5001 42.5 78.0001C40.5 90.8001 35 99.6667 32.5 102.5C24.3333 110.833 8 131.6 8 148C9.6 184.4 62 220.667 83.5 224.5L78.5 189L77 170V159.5C77 147.5 93 118.5 101.5 111C110 103.5 146.5 92.2143 169 89C180.422 87.3683 192.926 86.997 204.5 85.8662M598.5 110C465.5 70.5 371 -0.499977 204.5 85.8662M598.5 110C503.857 134.911 266.1 160.959 204.5 85.8662" stroke="black" stroke-width="15" stroke-linejoin="round"/>
</svg>
