<svg width="1010" height="109" viewBox="0 0 1010 109" fill="none" xmlns="http://www.w3.org/2000/svg">
<path d="M47.5322 108.35C43.1322 108.35 40.1822 106.35 38.6822 102.35L0.282227 2.45C1.18223 1.95 2.38223 1.55 3.88223 1.24999C5.38223 0.849993 6.78223 0.649992 8.08223 0.649992C11.5822 0.649992 14.4822 1.44999 16.7822 3.05C19.1822 4.55 20.9322 6.74999 22.0322 9.64999L46.4822 78.2L43.3322 87.2L44.8322 87.8L72.8822 9.64999C75.1822 3.64999 79.8822 0.649992 86.9822 0.649992C88.1822 0.649992 89.4822 0.849993 90.8822 1.24999C92.3822 1.55 93.6322 1.95 94.6322 2.45L56.3822 102.35C55.6822 104.25 54.5322 105.75 52.9322 106.85C51.4322 107.85 49.6322 108.35 47.5322 108.35ZM115.421 107C112.921 107 110.771 106.2 108.971 104.6C107.171 102.9 106.271 100.9 106.271 98.6V10.25C106.271 7.94999 107.121 5.99999 108.821 4.4C110.621 2.79999 112.821 1.99999 115.421 1.99999H156.071C165.471 1.99999 172.921 4.64999 178.421 9.95C184.021 15.25 186.821 22.35 186.821 31.25C186.821 35.65 185.621 39.85 183.221 43.85C180.921 47.75 177.821 50.75 173.921 52.85V53.3C179.321 55 183.521 57.95 186.521 62.15C189.621 66.25 191.171 71 191.171 76.4C191.171 82.4 189.821 87.75 187.121 92.45C184.421 97.05 180.671 100.65 175.871 103.25C171.071 105.75 165.571 107 159.371 107H115.421ZM155.771 46.85C159.371 46.85 162.421 45.4 164.921 42.5C167.521 39.6 168.821 36.05 168.821 31.85C168.821 27.35 167.671 23.8 165.371 21.2C163.071 18.6 159.871 17.3 155.771 17.3H123.971V46.85H155.771ZM158.771 91.55C163.271 91.55 166.771 90.25 169.271 87.65C171.871 84.95 173.171 81.3 173.171 76.7C173.171 72 171.921 68.4 169.421 65.9C166.921 63.3 163.371 62 158.771 62H123.971V91.55H158.771ZM766.551 107C763.951 107 761.701 106.05 759.801 104.15C758.001 102.25 757.101 100 757.101 97.4V14.45C757.101 9.74999 758.551 6.29999 761.451 4.09999C764.451 1.79999 769.001 0.649992 775.101 0.649992V91.25H817.551C821.851 91.25 825.101 92.6 827.301 95.3C829.601 97.9 830.751 101.8 830.751 107H766.551ZM854.149 107C851.549 107 849.299 106.05 847.399 104.15C845.599 102.25 844.699 100 844.699 97.4V14.45C844.699 9.74999 846.149 6.29999 849.049 4.09999C852.049 1.79999 856.599 0.649992 862.699 0.649992V91.25H905.149C909.449 91.25 912.699 92.6 914.899 95.3C917.199 97.9 918.349 101.8 918.349 107H854.149ZM965.232 108.35C956.532 108.35 948.732 106.7 941.832 103.4C935.032 100 929.732 95.35 925.932 89.45C922.132 83.45 920.232 76.65 920.232 69.05V39.5C920.232 31.9 922.082 25.2 925.782 19.4C929.582 13.5 934.832 8.9 941.532 5.59999C948.332 2.29999 956.032 0.649992 964.632 0.649992C973.332 0.649992 981.032 1.99999 987.732 4.69999C994.432 7.3 999.632 11 1003.33 15.8C1007.13 20.5 1009.03 25.9 1009.03 32C1009.03 35.5 1007.88 38.25 1005.58 40.25C1003.28 42.15 1000.18 43.1 996.282 43.1C994.382 43.1 992.582 42.9 990.882 42.5C991.182 41 991.332 38.75 991.332 35.75C991.332 30.05 988.832 25.4 983.832 21.8C978.932 18.2 972.532 16.4 964.632 16.4C956.832 16.4 950.482 18.55 945.582 22.85C940.682 27.15 938.232 32.7 938.232 39.5V69.05C938.232 75.95 940.732 81.6 945.732 86C950.732 90.3 957.232 92.45 965.232 92.45C973.132 92.45 979.582 90.7 984.582 87.2C989.582 83.6 992.082 78.95 992.082 73.25C992.082 70.45 991.932 68.3 991.632 66.8C993.232 66.4 994.982 66.2 996.882 66.2C1000.78 66.2 1003.88 67.25 1006.18 69.35C1008.58 71.45 1009.78 74.3 1009.78 77.9C1009.78 83.8 1007.88 89.05 1004.08 93.65C1000.38 98.25 995.132 101.85 988.332 104.45C981.532 107.05 973.832 108.35 965.232 108.35Z" fill="black"/>
<path d="M245.285 14.45C245.285 10.15 246.885 6.74999 250.085 4.24999C253.385 1.74999 257.785 0.499994 263.285 0.499994L296.435 82.4L293.135 90.95L294.485 91.55L329.885 0.649992C335.485 0.649992 339.885 1.89999 343.085 4.4C346.385 6.9 348.035 10.3 348.035 14.6V108.35C336.235 108.35 330.335 103.8 330.335 94.7V41.6L334.985 29L333.485 28.55L303.935 103.4C303.335 104.8 302.385 106 301.085 107C299.785 107.9 298.335 108.35 296.735 108.35C295.035 108.35 293.485 107.9 292.085 107C290.785 106.1 289.835 104.85 289.235 103.25L259.835 28.25L258.335 28.85L262.985 41.45V94.7C262.985 103.8 257.085 108.35 245.285 108.35V14.45ZM397.171 108.35C390.771 108.35 384.971 107.2 379.771 104.9C374.671 102.5 370.621 99.25 367.621 95.15C364.721 91.05 363.271 86.4 363.271 81.2V59C363.271 53.7 364.721 48.9 367.621 44.6C370.521 40.3 374.521 36.9 379.621 34.4C384.821 31.9 390.671 30.65 397.171 30.65C403.671 30.65 409.471 31.9 414.571 34.4C419.771 36.9 423.821 40.3 426.721 44.6C429.621 48.9 431.071 53.7 431.071 59V81.2C431.071 86.4 429.571 91.05 426.571 95.15C423.671 99.25 419.621 102.5 414.421 104.9C409.321 107.2 403.571 108.35 397.171 108.35ZM397.171 93.8C402.471 93.8 406.671 92.6 409.771 90.2C412.871 87.7 414.421 84.35 414.421 80.15V59.75C414.421 55.35 412.871 51.8 409.771 49.1C406.671 46.4 402.471 45.05 397.171 45.05C391.871 45.05 387.671 46.4 384.571 49.1C381.471 51.8 379.921 55.35 379.921 59.75V80.15C379.921 84.35 381.471 87.7 384.571 90.2C387.671 92.6 391.871 93.8 397.171 93.8ZM475.031 108.35C467.231 108.35 461.431 106.1 457.631 101.6C453.931 97.1 452.081 91.3 452.081 84.2V44.75H437.081C437.081 40.45 437.931 37.25 439.631 35.15C441.331 33.05 443.631 32 446.531 32H452.231V18.95C452.231 15.15 453.581 12.4 456.281 10.7C459.081 9 463.231 8.14999 468.731 8.14999V32H488.681C488.681 36.5 487.781 39.75 485.981 41.75C484.181 43.75 481.331 44.75 477.431 44.75H468.881V83.6C468.881 87.2 469.581 89.8 470.981 91.4C472.381 92.9 474.831 93.65 478.331 93.65C481.831 93.65 485.281 92.7 488.681 90.8C489.581 91.6 490.231 92.6 490.631 93.8C491.131 95 491.381 96.25 491.381 97.55C491.381 100.35 489.931 102.85 487.031 105.05C484.131 107.25 480.131 108.35 475.031 108.35ZM532.669 108.35C526.269 108.35 520.469 107.2 515.269 104.9C510.169 102.5 506.119 99.25 503.119 95.15C500.219 91.05 498.769 86.4 498.769 81.2V59C498.769 53.7 500.219 48.9 503.119 44.6C506.019 40.3 510.019 36.9 515.119 34.4C520.319 31.9 526.169 30.65 532.669 30.65C539.169 30.65 544.969 31.9 550.069 34.4C555.269 36.9 559.319 40.3 562.219 44.6C565.119 48.9 566.569 53.7 566.569 59V81.2C566.569 86.4 565.069 91.05 562.069 95.15C559.169 99.25 555.119 102.5 549.919 104.9C544.819 107.2 539.069 108.35 532.669 108.35ZM532.669 93.8C537.969 93.8 542.169 92.6 545.269 90.2C548.369 87.7 549.919 84.35 549.919 80.15V59.75C549.919 55.35 548.369 51.8 545.269 49.1C542.169 46.4 537.969 45.05 532.669 45.05C527.369 45.05 523.169 46.4 520.069 49.1C516.969 51.8 515.419 55.35 515.419 59.75V80.15C515.419 84.35 516.969 87.7 520.069 90.2C523.169 92.6 527.369 93.8 532.669 93.8ZM618.653 45.2C612.853 45.2 608.103 46.85 604.403 50.15C600.703 53.35 598.853 57.3 598.853 62V97.55C598.853 101.35 597.453 104.1 594.653 105.8C591.953 107.5 587.753 108.35 582.053 108.35V44C582.053 35.1 587.403 30.65 598.103 30.65V39.65C596.703 41.25 595.553 42.85 594.653 44.45L595.403 45.05C601.903 35.45 609.853 30.65 619.253 30.65C623.253 30.65 626.303 31.7 628.403 33.8C630.503 35.8 631.553 38.35 631.553 41.45C631.553 43.75 630.953 45.8 629.753 47.6C626.853 46 623.153 45.2 618.653 45.2ZM671.072 108.35C661.972 108.35 654.472 106.6 648.572 103.1C642.772 99.6 639.872 94.95 639.872 89.15C639.872 83.75 643.672 80.9 651.272 80.6C652.172 85.4 654.372 89.05 657.872 91.55C661.372 93.95 665.622 95.15 670.622 95.15C676.022 95.15 680.222 94.45 683.222 93.05C686.222 91.55 687.722 89.35 687.722 86.45C687.722 83.65 686.422 81.45 683.822 79.85C681.322 78.15 676.472 76.45 669.272 74.75C662.172 73.15 656.572 71.45 652.472 69.65C648.372 67.85 645.272 65.55 643.172 62.75C641.172 59.95 640.172 56.25 640.172 51.65C640.172 45.45 642.822 40.4 648.122 36.5C653.522 32.6 660.722 30.65 669.722 30.65C678.422 30.65 685.722 32.25 691.622 35.45C697.522 38.65 700.472 42.9 700.472 48.2C700.472 50.8 699.472 52.75 697.472 54.05C695.572 55.35 692.622 56.05 688.622 56.15C687.022 47.65 680.972 43.4 670.472 43.4C666.372 43.4 662.922 44.15 660.122 45.65C657.422 47.15 656.072 49.1 656.072 51.5C656.072 54 657.272 55.95 659.672 57.35C662.172 58.65 666.322 59.9 672.122 61.1C683.122 63.4 691.122 66.5 696.122 70.4C701.122 74.3 703.622 79.65 703.622 86.45C703.622 93.15 700.722 98.5 694.922 102.5C689.122 106.4 681.172 108.35 671.072 108.35Z" fill="#AA8F01"/>
</svg>
