<svg width="46" height="46" viewBox="0 0 46 46" fill="none" xmlns="http://www.w3.org/2000/svg">
<path d="M23 17.0115C19.7027 17.0115 17.0119 19.7023 17.0119 22.9996C17.0119 26.2968 19.7027 28.9877 23 28.9877C26.2973 28.9877 28.9881 26.2968 28.9881 22.9996C28.9881 19.7023 26.2973 17.0115 23 17.0115ZM40.9598 22.9996C40.9598 20.5199 40.9822 18.0627 40.843 15.5875C40.7037 12.7125 40.0479 10.1609 37.9455 8.05856C35.8387 5.95173 33.2916 5.30036 30.4166 5.1611C27.9369 5.02184 25.4797 5.0443 23.0045 5.0443C20.5248 5.0443 18.0676 5.02184 15.5924 5.1611C12.7174 5.30036 10.1658 5.95622 8.06348 8.05856C5.95664 10.1654 5.30527 12.7125 5.16602 15.5875C5.02676 18.0672 5.04922 20.5244 5.04922 22.9996C5.04922 25.4748 5.02676 27.9365 5.16602 30.4117C5.30527 33.2867 5.96113 35.8382 8.06348 37.9406C10.1703 40.0474 12.7174 40.6988 15.5924 40.8381C18.0721 40.9773 20.5293 40.9548 23.0045 40.9548C25.4842 40.9548 27.9414 40.9773 30.4166 40.8381C33.2916 40.6988 35.8432 40.0429 37.9455 37.9406C40.0524 35.8338 40.7037 33.2867 40.843 30.4117C40.9867 27.9365 40.9598 25.4793 40.9598 22.9996V22.9996ZM23 32.2131C17.9014 32.2131 13.7865 28.0982 13.7865 22.9996C13.7865 17.9009 17.9014 13.7861 23 13.7861C28.0986 13.7861 32.2135 17.9009 32.2135 22.9996C32.2135 28.0982 28.0986 32.2131 23 32.2131ZM32.5908 15.5605C31.4004 15.5605 30.4391 14.5992 30.4391 13.4088C30.4391 12.2183 31.4004 11.257 32.5908 11.257C33.7813 11.257 34.7426 12.2183 34.7426 13.4088C34.7429 13.6914 34.6875 13.9714 34.5795 14.2326C34.4715 14.4938 34.313 14.7312 34.1131 14.9311C33.9133 15.131 33.6759 15.2894 33.4147 15.3974C33.1535 15.5055 32.8735 15.5609 32.5908 15.5605V15.5605Z" fill="#1F1F1F"/>
</svg>
