<svg width="43" height="43" viewBox="0 0 43 43" fill="none" xmlns="http://www.w3.org/2000/svg">
<path d="M36.9531 4.70312H6.04688C5.30361 4.70312 4.70312 5.30361 4.70312 6.04688V36.9531C4.70312 37.6964 5.30361 38.2969 6.04688 38.2969H36.9531C37.6964 38.2969 38.2969 37.6964 38.2969 36.9531V6.04688C38.2969 5.30361 37.6964 4.70312 36.9531 4.70312ZM14.6679 33.3292H9.6834V17.2966H14.6679V33.3292ZM12.1777 15.1046C11.6063 15.1046 11.0478 14.9351 10.5727 14.6177C10.0976 14.3002 9.72725 13.849 9.50859 13.3211C9.28992 12.7932 9.23271 12.2123 9.34418 11.6519C9.45566 11.0915 9.73082 10.5767 10.1349 10.1727C10.5389 9.76861 11.0537 9.49345 11.6141 9.38198C12.1745 9.2705 12.7554 9.32771 13.2833 9.54638C13.8112 9.76505 14.2624 10.1353 14.5799 10.6105C14.8974 11.0856 15.0668 11.6441 15.0668 12.2155C15.0626 13.8112 13.7692 15.1046 12.1777 15.1046ZM33.3292 33.3292H28.3489V25.5312C28.3489 23.671 28.3153 21.2816 25.758 21.2816C23.1671 21.2816 22.7682 23.3057 22.7682 25.3969V33.3292H17.7921V17.2966H22.5708V19.4886H22.638C23.3015 18.2288 24.9266 16.8977 27.3537 16.8977C32.4012 16.8977 33.3292 20.2192 33.3292 24.536V33.3292Z" fill="#1F1F1F"/>
</svg>
