<svg width="41" height="41" viewBox="0 0 41 41" fill="none" xmlns="http://www.w3.org/2000/svg">
<path d="M34.44 11.6853C29.52 4.10034 19.475 1.84534 11.685 6.56034C4.10001 11.2753 1.64001 21.5253 6.56001 29.1103L6.97001 29.7253L5.33001 35.8753L11.48 34.2353L12.095 34.6453C14.76 36.0803 17.63 36.9003 20.5 36.9003C23.575 36.9003 26.65 36.0803 29.315 34.4403C36.9 29.5203 39.155 19.4753 34.44 11.6853ZM30.135 27.4703C29.315 28.7003 28.29 29.5203 26.855 29.7253C26.035 29.7253 25.01 30.1353 20.91 28.4953C17.425 26.8553 14.555 24.1903 12.505 21.1153C11.275 19.6803 10.66 17.8353 10.455 15.9903C10.455 14.3503 11.07 12.9153 12.095 11.8903C12.505 11.4803 12.915 11.2753 13.325 11.2753H14.35C14.76 11.2753 15.17 11.2753 15.375 12.0953C15.785 13.1203 16.81 15.5803 16.81 15.7853C17.015 15.9903 17.015 16.4003 16.81 16.6053C17.015 17.0153 16.81 17.4253 16.605 17.6303C16.4 17.8353 16.195 18.2453 15.99 18.4503C15.58 18.6553 15.375 19.0653 15.58 19.4753C16.4 20.7053 17.425 21.9353 18.45 22.9603C19.68 23.9853 20.91 24.8053 22.345 25.4203C22.755 25.6253 23.165 25.6253 23.37 25.2153C23.575 24.8053 24.6 23.7803 25.01 23.3703C25.42 22.9603 25.625 22.9603 26.035 23.1653L29.315 24.8053C29.725 25.0103 30.135 25.2153 30.34 25.4203C30.545 26.0353 30.545 26.8553 30.135 27.4703Z" fill="#1F1F1F"/>
</svg>
