<svg width="39" height="39" viewBox="0 0 39 39" fill="none" xmlns="http://www.w3.org/2000/svg">
<g clip-path="url(#clip0_83_517)">
<path d="M19.6243 4.87305H19.8413C21.8449 4.88036 31.9971 4.95348 34.7344 5.68961C35.5619 5.91427 36.3159 6.35218 36.9212 6.95957C37.5265 7.56696 37.9617 8.32256 38.1834 9.15086C38.4296 10.0771 38.6027 11.3032 38.7197 12.5682L38.7441 12.8217L38.7977 13.4555L38.8172 13.709C38.9756 15.9369 38.9951 18.0234 38.9976 18.4792V18.662C38.9951 19.1349 38.9732 21.3627 38.7977 23.6832L38.7782 23.9392L38.7562 24.1927C38.6344 25.5869 38.454 26.9714 38.1834 27.9903C37.9624 28.8189 37.5274 29.5749 36.922 30.1824C36.3166 30.7899 35.5622 31.2276 34.7344 31.4515C31.9069 32.212 21.1599 32.2657 19.6706 32.2681H19.3245C18.5713 32.2681 15.4562 32.2535 12.1899 32.1414L11.7756 32.1267L11.5635 32.117L11.1467 32.0999L10.7299 32.0829C8.02425 31.9634 5.44781 31.7709 4.26075 31.4491C3.43319 31.2253 2.67897 30.788 2.07364 30.181C1.46831 29.5739 1.03313 28.8185 0.811688 27.9903C0.541125 26.9739 0.36075 25.5869 0.238875 24.1927L0.219375 23.9367L0.199875 23.6832C0.0795785 22.0316 0.0129184 20.3765 0 18.7205L0 18.4207C0.004875 17.8966 0.024375 16.0855 0.156 14.0868L0.173063 13.8357L0.180375 13.709L0.199875 13.4555L0.2535 12.8217L0.277875 12.5682C0.394875 11.3032 0.567937 10.0747 0.814125 9.15086C1.03519 8.32223 1.47021 7.56627 2.07556 6.95877C2.68092 6.35128 3.43534 5.9136 4.26319 5.68961C5.45025 5.37273 8.02669 5.17773 10.7323 5.05586L11.1467 5.0388L11.5659 5.02417L11.7756 5.01686L12.1924 4.9998C14.5122 4.92515 16.8329 4.88371 19.1539 4.87548H19.6243V4.87305ZM15.6 12.6974V24.4413L25.7327 18.5718L15.6 12.6974Z" fill="#1F1F1F"/>
</g>
<defs>
<clipPath id="clip0_83_517">
<rect width="39" height="39" fill="white"/>
</clipPath>
</defs>
</svg>
